<mxfile host="app.diagrams.net" modified="2023-08-20T21:29:47.720Z" agent="Mozilla/5.0 (Windows NT 10.0; Win64; x64) AppleWebKit/537.36 (KHTML, like Gecko) Chrome/116.0.0.0 Safari/537.36" etag="_W4W4FUSFArfpzEo3KKb" version="21.6.8" type="google">
  <diagram name="Page-1" id="RQWfcXa44yctHv4SCbA-">
    <mxGraphModel grid="1" page="1" gridSize="10" guides="1" tooltips="1" connect="1" arrows="1" fold="1" pageScale="1" pageWidth="827" pageHeight="1169" math="0" shadow="0">
      <root>
        <mxCell id="0" />
        <mxCell id="1" parent="0" />
        <mxCell id="m833cYq_X4YltrBixwbO-1" value="" style="endArrow=none;html=1;rounded=0;" edge="1" parent="1">
          <mxGeometry width="50" height="50" relative="1" as="geometry">
            <mxPoint x="240" y="840" as="sourcePoint" />
            <mxPoint x="240" as="targetPoint" />
          </mxGeometry>
        </mxCell>
        <mxCell id="m833cYq_X4YltrBixwbO-2" value="" style="endArrow=none;html=1;rounded=0;" edge="1" parent="1">
          <mxGeometry width="50" height="50" relative="1" as="geometry">
            <mxPoint y="40" as="sourcePoint" />
            <mxPoint x="1090" y="40" as="targetPoint" />
          </mxGeometry>
        </mxCell>
        <mxCell id="m833cYq_X4YltrBixwbO-3" value="" style="endArrow=none;html=1;rounded=0;" edge="1" parent="1">
          <mxGeometry width="50" height="50" relative="1" as="geometry">
            <mxPoint x="480" y="640" as="sourcePoint" />
            <mxPoint x="480" as="targetPoint" />
          </mxGeometry>
        </mxCell>
        <mxCell id="m833cYq_X4YltrBixwbO-4" value="" style="endArrow=none;html=1;rounded=0;" edge="1" parent="1">
          <mxGeometry width="50" height="50" relative="1" as="geometry">
            <mxPoint x="720" y="731" as="sourcePoint" />
            <mxPoint x="720" as="targetPoint" />
          </mxGeometry>
        </mxCell>
        <mxCell id="m833cYq_X4YltrBixwbO-5" value="Banka" style="text;html=1;align=center;verticalAlign=middle;resizable=0;points=[];autosize=1;strokeColor=none;fillColor=none;" vertex="1" parent="1">
          <mxGeometry x="80" y="10" width="60" height="30" as="geometry" />
        </mxCell>
        <mxCell id="m833cYq_X4YltrBixwbO-6" value="Korisnik" style="text;html=1;align=center;verticalAlign=middle;resizable=0;points=[];autosize=1;strokeColor=none;fillColor=none;" vertex="1" parent="1">
          <mxGeometry x="320" y="10" width="70" height="30" as="geometry" />
        </mxCell>
        <mxCell id="m833cYq_X4YltrBixwbO-7" value="Online Videoteka" style="text;html=1;align=center;verticalAlign=middle;resizable=0;points=[];autosize=1;strokeColor=none;fillColor=none;" vertex="1" parent="1">
          <mxGeometry x="540" y="10" width="110" height="30" as="geometry" />
        </mxCell>
        <mxCell id="m833cYq_X4YltrBixwbO-8" value="Administrator" style="text;html=1;align=center;verticalAlign=middle;resizable=0;points=[];autosize=1;strokeColor=none;fillColor=none;" vertex="1" parent="1">
          <mxGeometry x="790" y="10" width="90" height="30" as="geometry" />
        </mxCell>
        <mxCell id="m833cYq_X4YltrBixwbO-9" value="" style="endArrow=none;html=1;rounded=0;" edge="1" parent="1">
          <mxGeometry width="50" height="50" relative="1" as="geometry">
            <mxPoint x="960" y="540" as="sourcePoint" />
            <mxPoint x="960" as="targetPoint" />
          </mxGeometry>
        </mxCell>
        <mxCell id="m833cYq_X4YltrBixwbO-10" value="" style="endArrow=none;html=1;rounded=0;" edge="1" parent="1">
          <mxGeometry width="50" height="50" relative="1" as="geometry">
            <mxPoint x="1200" y="40" as="sourcePoint" />
            <mxPoint x="1090" y="40" as="targetPoint" />
          </mxGeometry>
        </mxCell>
        <mxCell id="m833cYq_X4YltrBixwbO-11" value="" style="endArrow=none;html=1;rounded=0;" edge="1" parent="1">
          <mxGeometry width="50" height="50" relative="1" as="geometry">
            <mxPoint x="1200" y="540" as="sourcePoint" />
            <mxPoint x="1200" as="targetPoint" />
          </mxGeometry>
        </mxCell>
        <mxCell id="m833cYq_X4YltrBixwbO-12" value="Vlasnik" style="text;html=1;align=center;verticalAlign=middle;resizable=0;points=[];autosize=1;strokeColor=none;fillColor=none;" vertex="1" parent="1">
          <mxGeometry x="1040" y="10" width="60" height="30" as="geometry" />
        </mxCell>
        <mxCell id="m833cYq_X4YltrBixwbO-14" value="" style="ellipse;whiteSpace=wrap;html=1;aspect=fixed;" vertex="1" parent="1">
          <mxGeometry x="575" y="70" width="40" height="40" as="geometry" />
        </mxCell>
        <mxCell id="m833cYq_X4YltrBixwbO-16" value="" style="ellipse;whiteSpace=wrap;html=1;aspect=fixed;fillColor=#1ba1e2;fontColor=#ffffff;strokeColor=#006EAF;" vertex="1" parent="1">
          <mxGeometry x="580" y="75" width="30" height="30" as="geometry" />
        </mxCell>
        <mxCell id="m833cYq_X4YltrBixwbO-17" value="" style="endArrow=classic;html=1;rounded=0;exitX=1;exitY=1;exitDx=0;exitDy=0;entryX=0.5;entryY=0;entryDx=0;entryDy=0;" edge="1" parent="1" source="m833cYq_X4YltrBixwbO-14" target="m833cYq_X4YltrBixwbO-19">
          <mxGeometry width="50" height="50" relative="1" as="geometry">
            <mxPoint x="390" y="380" as="sourcePoint" />
            <mxPoint x="595" y="150" as="targetPoint" />
          </mxGeometry>
        </mxCell>
        <mxCell id="m833cYq_X4YltrBixwbO-19" value="Prijava" style="rounded=1;whiteSpace=wrap;html=1;" vertex="1" parent="1">
          <mxGeometry x="610" y="150" width="60" height="30" as="geometry" />
        </mxCell>
        <mxCell id="m833cYq_X4YltrBixwbO-20" value="" style="endArrow=classic;html=1;rounded=0;exitX=0.5;exitY=1;exitDx=0;exitDy=0;entryX=0.5;entryY=0;entryDx=0;entryDy=0;" edge="1" parent="1" source="m833cYq_X4YltrBixwbO-19" target="m833cYq_X4YltrBixwbO-21">
          <mxGeometry width="50" height="50" relative="1" as="geometry">
            <mxPoint x="390" y="380" as="sourcePoint" />
            <mxPoint x="595" y="220" as="targetPoint" />
          </mxGeometry>
        </mxCell>
        <mxCell id="m833cYq_X4YltrBixwbO-21" value="Provjera podataka" style="rhombus;whiteSpace=wrap;html=1;" vertex="1" parent="1">
          <mxGeometry x="600" y="258" width="80" height="80" as="geometry" />
        </mxCell>
        <mxCell id="m833cYq_X4YltrBixwbO-23" value="" style="edgeStyle=elbowEdgeStyle;elbow=horizontal;endArrow=classic;html=1;curved=0;rounded=0;endSize=8;startSize=8;exitX=1;exitY=0.5;exitDx=0;exitDy=0;" edge="1" parent="1" source="m833cYq_X4YltrBixwbO-21" target="m833cYq_X4YltrBixwbO-19">
          <mxGeometry width="50" height="50" relative="1" as="geometry">
            <mxPoint x="640" y="260" as="sourcePoint" />
            <mxPoint x="695" y="165" as="targetPoint" />
            <Array as="points">
              <mxPoint x="695" y="190" />
            </Array>
          </mxGeometry>
        </mxCell>
        <mxCell id="m833cYq_X4YltrBixwbO-27" value="Neuspjeh" style="text;html=1;align=center;verticalAlign=middle;resizable=0;points=[];autosize=1;strokeColor=none;fillColor=none;" vertex="1" parent="1">
          <mxGeometry x="650" y="130" width="70" height="30" as="geometry" />
        </mxCell>
        <mxCell id="m833cYq_X4YltrBixwbO-28" value="Registracija" style="rounded=1;whiteSpace=wrap;html=1;" vertex="1" parent="1">
          <mxGeometry x="500" y="150" width="90" height="30" as="geometry" />
        </mxCell>
        <mxCell id="m833cYq_X4YltrBixwbO-30" value="" style="endArrow=classic;html=1;rounded=0;entryX=0.5;entryY=0;entryDx=0;entryDy=0;exitX=0;exitY=1;exitDx=0;exitDy=0;" edge="1" parent="1" source="m833cYq_X4YltrBixwbO-14" target="m833cYq_X4YltrBixwbO-28">
          <mxGeometry width="50" height="50" relative="1" as="geometry">
            <mxPoint x="580" y="100" as="sourcePoint" />
            <mxPoint x="440" y="330" as="targetPoint" />
          </mxGeometry>
        </mxCell>
        <mxCell id="m833cYq_X4YltrBixwbO-31" value="Odabir pretplate" style="rhombus;whiteSpace=wrap;html=1;" vertex="1" parent="1">
          <mxGeometry x="510" y="210" width="80" height="80" as="geometry" />
        </mxCell>
        <mxCell id="m833cYq_X4YltrBixwbO-32" value="" style="endArrow=classic;html=1;rounded=0;entryX=0.5;entryY=0;entryDx=0;entryDy=0;" edge="1" parent="1" target="m833cYq_X4YltrBixwbO-31">
          <mxGeometry width="50" height="50" relative="1" as="geometry">
            <mxPoint x="550" y="180" as="sourcePoint" />
            <mxPoint x="440" y="330" as="targetPoint" />
          </mxGeometry>
        </mxCell>
        <mxCell id="m833cYq_X4YltrBixwbO-33" value="Provjera kartice i naplate" style="rhombus;whiteSpace=wrap;html=1;" vertex="1" parent="1">
          <mxGeometry x="30" y="210" width="120" height="100" as="geometry" />
        </mxCell>
        <mxCell id="m833cYq_X4YltrBixwbO-34" value="" style="endArrow=classic;html=1;rounded=0;exitX=0;exitY=0.5;exitDx=0;exitDy=0;entryX=1;entryY=0.5;entryDx=0;entryDy=0;" edge="1" parent="1" source="m833cYq_X4YltrBixwbO-31" target="m833cYq_X4YltrBixwbO-33">
          <mxGeometry width="50" height="50" relative="1" as="geometry">
            <mxPoint x="390" y="380" as="sourcePoint" />
            <mxPoint x="440" y="330" as="targetPoint" />
          </mxGeometry>
        </mxCell>
        <mxCell id="m833cYq_X4YltrBixwbO-35" value="Uspjeh" style="text;html=1;align=center;verticalAlign=middle;resizable=0;points=[];autosize=1;strokeColor=none;fillColor=none;" vertex="1" parent="1">
          <mxGeometry x="150" y="228" width="60" height="30" as="geometry" />
        </mxCell>
        <mxCell id="m833cYq_X4YltrBixwbO-36" value="" style="endArrow=classic;html=1;rounded=0;exitX=0.5;exitY=0;exitDx=0;exitDy=0;entryX=0;entryY=0.5;entryDx=0;entryDy=0;" edge="1" parent="1" source="m833cYq_X4YltrBixwbO-33" target="m833cYq_X4YltrBixwbO-28">
          <mxGeometry width="50" height="50" relative="1" as="geometry">
            <mxPoint x="390" y="380" as="sourcePoint" />
            <mxPoint x="440" y="330" as="targetPoint" />
          </mxGeometry>
        </mxCell>
        <mxCell id="m833cYq_X4YltrBixwbO-37" value="Neuspjeh" style="text;html=1;align=center;verticalAlign=middle;resizable=0;points=[];autosize=1;strokeColor=none;fillColor=none;" vertex="1" parent="1">
          <mxGeometry x="95" y="178" width="70" height="30" as="geometry" />
        </mxCell>
        <mxCell id="m833cYq_X4YltrBixwbO-38" value="" style="endArrow=classic;html=1;rounded=0;exitX=0.5;exitY=1;exitDx=0;exitDy=0;" edge="1" parent="1" source="m833cYq_X4YltrBixwbO-33" target="m833cYq_X4YltrBixwbO-21">
          <mxGeometry width="50" height="50" relative="1" as="geometry">
            <mxPoint x="390" y="380" as="sourcePoint" />
            <mxPoint x="440" y="330" as="targetPoint" />
          </mxGeometry>
        </mxCell>
        <mxCell id="m833cYq_X4YltrBixwbO-39" value="Uspjeh" style="text;html=1;align=center;verticalAlign=middle;resizable=0;points=[];autosize=1;strokeColor=none;fillColor=none;" vertex="1" parent="1">
          <mxGeometry x="130" y="278" width="60" height="30" as="geometry" />
        </mxCell>
        <mxCell id="m833cYq_X4YltrBixwbO-40" value="" style="endArrow=classic;html=1;rounded=0;exitX=1;exitY=0.5;exitDx=0;exitDy=0;entryX=0.75;entryY=1;entryDx=0;entryDy=0;" edge="1" parent="1" source="m833cYq_X4YltrBixwbO-31" target="m833cYq_X4YltrBixwbO-28">
          <mxGeometry width="50" height="50" relative="1" as="geometry">
            <mxPoint x="390" y="380" as="sourcePoint" />
            <mxPoint x="640" y="380" as="targetPoint" />
          </mxGeometry>
        </mxCell>
        <mxCell id="m833cYq_X4YltrBixwbO-41" value="Neuspjeh" style="text;html=1;align=center;verticalAlign=middle;resizable=0;points=[];autosize=1;strokeColor=none;fillColor=none;" vertex="1" parent="1">
          <mxGeometry x="570" y="178" width="70" height="30" as="geometry" />
        </mxCell>
        <mxCell id="m833cYq_X4YltrBixwbO-42" value="" style="endArrow=classic;html=1;rounded=0;exitX=0.5;exitY=1;exitDx=0;exitDy=0;" edge="1" parent="1" source="m833cYq_X4YltrBixwbO-21">
          <mxGeometry width="50" height="50" relative="1" as="geometry">
            <mxPoint x="390" y="380" as="sourcePoint" />
            <mxPoint x="640" y="360" as="targetPoint" />
          </mxGeometry>
        </mxCell>
        <mxCell id="m833cYq_X4YltrBixwbO-43" value="Uspjeh" style="text;html=1;align=center;verticalAlign=middle;resizable=0;points=[];autosize=1;strokeColor=none;fillColor=none;" vertex="1" parent="1">
          <mxGeometry x="640" y="330" width="60" height="30" as="geometry" />
        </mxCell>
        <mxCell id="m833cYq_X4YltrBixwbO-44" value="" style="endArrow=none;html=1;rounded=0;" edge="1" parent="1">
          <mxGeometry width="50" height="50" relative="1" as="geometry">
            <mxPoint x="360" y="360" as="sourcePoint" />
            <mxPoint x="1082" y="360" as="targetPoint" />
          </mxGeometry>
        </mxCell>
        <mxCell id="m833cYq_X4YltrBixwbO-45" value="" style="endArrow=classic;html=1;rounded=0;" edge="1" parent="1">
          <mxGeometry width="50" height="50" relative="1" as="geometry">
            <mxPoint x="1080" y="360" as="sourcePoint" />
            <mxPoint x="1080" y="400" as="targetPoint" />
          </mxGeometry>
        </mxCell>
        <mxCell id="m833cYq_X4YltrBixwbO-46" value="Pregled izvještaja" style="rounded=1;whiteSpace=wrap;html=1;" vertex="1" parent="1">
          <mxGeometry x="1030" y="400" width="100" height="40" as="geometry" />
        </mxCell>
        <mxCell id="m833cYq_X4YltrBixwbO-47" value="" style="endArrow=none;html=1;rounded=0;" edge="1" parent="1">
          <mxGeometry width="50" height="50" relative="1" as="geometry">
            <mxPoint x="960" y="540" as="sourcePoint" />
            <mxPoint x="960" y="830" as="targetPoint" />
          </mxGeometry>
        </mxCell>
        <mxCell id="m833cYq_X4YltrBixwbO-48" value="" style="endArrow=classic;html=1;rounded=0;" edge="1" parent="1">
          <mxGeometry width="50" height="50" relative="1" as="geometry">
            <mxPoint x="360" y="360" as="sourcePoint" />
            <mxPoint x="360" y="400" as="targetPoint" />
          </mxGeometry>
        </mxCell>
        <mxCell id="m833cYq_X4YltrBixwbO-49" value="" style="endArrow=classic;html=1;rounded=0;" edge="1" parent="1">
          <mxGeometry width="50" height="50" relative="1" as="geometry">
            <mxPoint x="840" y="360" as="sourcePoint" />
            <mxPoint x="840" y="400" as="targetPoint" />
          </mxGeometry>
        </mxCell>
        <mxCell id="m833cYq_X4YltrBixwbO-50" value="Funkcije upravljanja sustavom" style="rounded=1;whiteSpace=wrap;html=1;" vertex="1" parent="1">
          <mxGeometry x="790" y="400" width="110" height="40" as="geometry" />
        </mxCell>
        <mxCell id="m833cYq_X4YltrBixwbO-51" value="" style="endArrow=none;html=1;rounded=0;" edge="1" parent="1">
          <mxGeometry width="50" height="50" relative="1" as="geometry">
            <mxPoint x="480" y="640" as="sourcePoint" />
            <mxPoint x="480" y="850" as="targetPoint" />
          </mxGeometry>
        </mxCell>
        <mxCell id="m833cYq_X4YltrBixwbO-52" value="Editiranje profila" style="rounded=1;whiteSpace=wrap;html=1;" vertex="1" parent="1">
          <mxGeometry x="309" y="400" width="105" height="40" as="geometry" />
        </mxCell>
        <mxCell id="m833cYq_X4YltrBixwbO-53" value="Pretraga filmova" style="rounded=1;whiteSpace=wrap;html=1;" vertex="1" parent="1">
          <mxGeometry x="310" y="480" width="104" height="40" as="geometry" />
        </mxCell>
        <mxCell id="m833cYq_X4YltrBixwbO-54" value="Pregled detalja o filmu" style="rounded=1;whiteSpace=wrap;html=1;" vertex="1" parent="1">
          <mxGeometry x="309" y="560" width="101" height="40" as="geometry" />
        </mxCell>
        <mxCell id="m833cYq_X4YltrBixwbO-55" value="Gledanje sadržaja" style="rounded=1;whiteSpace=wrap;html=1;" vertex="1" parent="1">
          <mxGeometry x="309" y="640" width="101" height="40" as="geometry" />
        </mxCell>
        <mxCell id="m833cYq_X4YltrBixwbO-56" value="Dodavanje filma u &quot;Moj popis&quot;" style="rounded=1;whiteSpace=wrap;html=1;" vertex="1" parent="1">
          <mxGeometry x="309" y="720" width="101" height="40" as="geometry" />
        </mxCell>
        <mxCell id="m833cYq_X4YltrBixwbO-57" value="Ocjenjivanje filma" style="rounded=1;whiteSpace=wrap;html=1;" vertex="1" parent="1">
          <mxGeometry x="309" y="800" width="91" height="40" as="geometry" />
        </mxCell>
        <mxCell id="m833cYq_X4YltrBixwbO-58" value="Komentiranje" style="rounded=1;whiteSpace=wrap;html=1;" vertex="1" parent="1">
          <mxGeometry x="309" y="880" width="91" height="40" as="geometry" />
        </mxCell>
        <mxCell id="m833cYq_X4YltrBixwbO-59" value="Funkcije upravljanja sadržajem" style="rounded=1;whiteSpace=wrap;html=1;" vertex="1" parent="1">
          <mxGeometry x="790" y="480" width="110" height="40" as="geometry" />
        </mxCell>
        <mxCell id="m833cYq_X4YltrBixwbO-61" value="Funkcije upravljanja korisnicima" style="rounded=1;whiteSpace=wrap;html=1;" vertex="1" parent="1">
          <mxGeometry x="790" y="560" width="110" height="40" as="geometry" />
        </mxCell>
        <mxCell id="m833cYq_X4YltrBixwbO-62" value="Funkcije upravljanja recenzijama" style="rounded=1;whiteSpace=wrap;html=1;" vertex="1" parent="1">
          <mxGeometry x="790" y="640" width="115" height="40" as="geometry" />
        </mxCell>
        <mxCell id="m833cYq_X4YltrBixwbO-64" value="Funkcije upravljanja komentarima" style="rounded=1;whiteSpace=wrap;html=1;" vertex="1" parent="1">
          <mxGeometry x="790" y="720" width="110" height="40" as="geometry" />
        </mxCell>
        <mxCell id="m833cYq_X4YltrBixwbO-65" value="Korisnička podrška" style="rounded=1;whiteSpace=wrap;html=1;" vertex="1" parent="1">
          <mxGeometry x="787.5" y="800" width="112.5" height="40" as="geometry" />
        </mxCell>
        <mxCell id="m833cYq_X4YltrBixwbO-66" value="" style="endArrow=none;html=1;rounded=0;" edge="1" parent="1">
          <mxGeometry width="50" height="50" relative="1" as="geometry">
            <mxPoint x="720" y="730" as="sourcePoint" />
            <mxPoint x="720" y="920" as="targetPoint" />
          </mxGeometry>
        </mxCell>
        <mxCell id="m833cYq_X4YltrBixwbO-68" value="" style="endArrow=none;html=1;rounded=0;" edge="1" parent="1">
          <mxGeometry width="50" height="50" relative="1" as="geometry">
            <mxPoint x="480" y="850" as="sourcePoint" />
            <mxPoint x="480" y="1150" as="targetPoint" />
          </mxGeometry>
        </mxCell>
        <mxCell id="m833cYq_X4YltrBixwbO-69" value="" style="endArrow=none;html=1;rounded=0;" edge="1" parent="1">
          <mxGeometry width="50" height="50" relative="1" as="geometry">
            <mxPoint x="720" y="920" as="sourcePoint" />
            <mxPoint x="720" y="1152" as="targetPoint" />
          </mxGeometry>
        </mxCell>
        <mxCell id="m833cYq_X4YltrBixwbO-70" value="" style="endArrow=none;html=1;rounded=0;" edge="1" parent="1">
          <mxGeometry width="50" height="50" relative="1" as="geometry">
            <mxPoint x="240" y="840" as="sourcePoint" />
            <mxPoint x="240" y="1152" as="targetPoint" />
          </mxGeometry>
        </mxCell>
        <mxCell id="m833cYq_X4YltrBixwbO-71" value="" style="endArrow=none;html=1;rounded=0;" edge="1" parent="1">
          <mxGeometry width="50" height="50" relative="1" as="geometry">
            <mxPoint x="1200" y="540" as="sourcePoint" />
            <mxPoint x="1201" y="1100" as="targetPoint" />
          </mxGeometry>
        </mxCell>
        <mxCell id="m833cYq_X4YltrBixwbO-72" value="" style="endArrow=none;html=1;rounded=0;" edge="1" parent="1">
          <mxGeometry width="50" height="50" relative="1" as="geometry">
            <mxPoint x="960" y="830" as="sourcePoint" />
            <mxPoint x="960" y="1154" as="targetPoint" />
          </mxGeometry>
        </mxCell>
        <mxCell id="m833cYq_X4YltrBixwbO-73" value="Odjava" style="rounded=1;whiteSpace=wrap;html=1;" vertex="1" parent="1">
          <mxGeometry x="547.5" y="970" width="95" height="40" as="geometry" />
        </mxCell>
        <mxCell id="m833cYq_X4YltrBixwbO-74" value="" style="endArrow=classic;html=1;rounded=0;exitX=0.5;exitY=1;exitDx=0;exitDy=0;" edge="1" parent="1" source="m833cYq_X4YltrBixwbO-73">
          <mxGeometry width="50" height="50" relative="1" as="geometry">
            <mxPoint x="710" y="840" as="sourcePoint" />
            <mxPoint x="595" y="1050" as="targetPoint" />
          </mxGeometry>
        </mxCell>
        <mxCell id="m833cYq_X4YltrBixwbO-79" value="" style="ellipse;whiteSpace=wrap;html=1;aspect=fixed;" vertex="1" parent="1">
          <mxGeometry x="575" y="1050" width="40" height="40" as="geometry" />
        </mxCell>
        <mxCell id="m833cYq_X4YltrBixwbO-80" value="" style="ellipse;whiteSpace=wrap;html=1;aspect=fixed;fillColor=#1ba1e2;fontColor=#ffffff;strokeColor=#006EAF;" vertex="1" parent="1">
          <mxGeometry x="580" y="1055" width="30" height="30" as="geometry" />
        </mxCell>
        <mxCell id="m833cYq_X4YltrBixwbO-85" value="" style="edgeStyle=elbowEdgeStyle;elbow=vertical;endArrow=classic;html=1;curved=0;rounded=0;endSize=8;startSize=8;entryX=0;entryY=0.5;entryDx=0;entryDy=0;exitX=0.5;exitY=1;exitDx=0;exitDy=0;" edge="1" parent="1" source="m833cYq_X4YltrBixwbO-58" target="m833cYq_X4YltrBixwbO-73">
          <mxGeometry width="50" height="50" relative="1" as="geometry">
            <mxPoint x="360" y="930" as="sourcePoint" />
            <mxPoint x="760" y="790" as="targetPoint" />
            <Array as="points">
              <mxPoint x="460" y="990" />
            </Array>
          </mxGeometry>
        </mxCell>
        <mxCell id="m833cYq_X4YltrBixwbO-86" value="" style="edgeStyle=elbowEdgeStyle;elbow=horizontal;endArrow=classic;html=1;curved=0;rounded=0;endSize=8;startSize=8;exitX=0.5;exitY=1;exitDx=0;exitDy=0;entryX=1;entryY=0.5;entryDx=0;entryDy=0;" edge="1" parent="1" source="m833cYq_X4YltrBixwbO-46" target="m833cYq_X4YltrBixwbO-73">
          <mxGeometry width="50" height="50" relative="1" as="geometry">
            <mxPoint x="710" y="740" as="sourcePoint" />
            <mxPoint x="1070" y="980" as="targetPoint" />
            <Array as="points">
              <mxPoint x="1080" y="710" />
            </Array>
          </mxGeometry>
        </mxCell>
        <mxCell id="m833cYq_X4YltrBixwbO-87" value="" style="endArrow=classic;html=1;rounded=0;exitX=0.5;exitY=1;exitDx=0;exitDy=0;entryX=0.5;entryY=0;entryDx=0;entryDy=0;" edge="1" parent="1" source="m833cYq_X4YltrBixwbO-52" target="m833cYq_X4YltrBixwbO-53">
          <mxGeometry width="50" height="50" relative="1" as="geometry">
            <mxPoint x="710" y="740" as="sourcePoint" />
            <mxPoint x="760" y="690" as="targetPoint" />
          </mxGeometry>
        </mxCell>
        <mxCell id="m833cYq_X4YltrBixwbO-88" value="" style="endArrow=classic;html=1;rounded=0;exitX=0.5;exitY=1;exitDx=0;exitDy=0;" edge="1" parent="1" source="m833cYq_X4YltrBixwbO-53">
          <mxGeometry width="50" height="50" relative="1" as="geometry">
            <mxPoint x="710" y="740" as="sourcePoint" />
            <mxPoint x="362" y="560" as="targetPoint" />
          </mxGeometry>
        </mxCell>
        <mxCell id="m833cYq_X4YltrBixwbO-90" value="" style="endArrow=classic;html=1;rounded=0;exitX=0.5;exitY=1;exitDx=0;exitDy=0;entryX=0.5;entryY=0;entryDx=0;entryDy=0;" edge="1" parent="1" source="m833cYq_X4YltrBixwbO-54" target="m833cYq_X4YltrBixwbO-55">
          <mxGeometry width="50" height="50" relative="1" as="geometry">
            <mxPoint x="710" y="740" as="sourcePoint" />
            <mxPoint x="760" y="690" as="targetPoint" />
          </mxGeometry>
        </mxCell>
        <mxCell id="m833cYq_X4YltrBixwbO-91" value="" style="endArrow=classic;html=1;rounded=0;entryX=0.5;entryY=0;entryDx=0;entryDy=0;exitX=0.5;exitY=1;exitDx=0;exitDy=0;" edge="1" parent="1" source="m833cYq_X4YltrBixwbO-55" target="m833cYq_X4YltrBixwbO-56">
          <mxGeometry width="50" height="50" relative="1" as="geometry">
            <mxPoint x="360" y="690" as="sourcePoint" />
            <mxPoint x="760" y="690" as="targetPoint" />
          </mxGeometry>
        </mxCell>
        <mxCell id="m833cYq_X4YltrBixwbO-94" value="" style="endArrow=classic;html=1;rounded=0;exitX=0.5;exitY=1;exitDx=0;exitDy=0;entryX=0.555;entryY=0;entryDx=0;entryDy=0;entryPerimeter=0;" edge="1" parent="1" source="m833cYq_X4YltrBixwbO-56" target="m833cYq_X4YltrBixwbO-57">
          <mxGeometry width="50" height="50" relative="1" as="geometry">
            <mxPoint x="710" y="740" as="sourcePoint" />
            <mxPoint x="360" y="790" as="targetPoint" />
          </mxGeometry>
        </mxCell>
        <mxCell id="m833cYq_X4YltrBixwbO-95" value="" style="endArrow=classic;html=1;rounded=0;exitX=0.5;exitY=1;exitDx=0;exitDy=0;entryX=0.5;entryY=0;entryDx=0;entryDy=0;" edge="1" parent="1" source="m833cYq_X4YltrBixwbO-57" target="m833cYq_X4YltrBixwbO-58">
          <mxGeometry width="50" height="50" relative="1" as="geometry">
            <mxPoint x="710" y="740" as="sourcePoint" />
            <mxPoint x="760" y="690" as="targetPoint" />
          </mxGeometry>
        </mxCell>
        <mxCell id="m833cYq_X4YltrBixwbO-96" value="" style="endArrow=classic;html=1;rounded=0;exitX=0.5;exitY=1;exitDx=0;exitDy=0;entryX=0.5;entryY=0;entryDx=0;entryDy=0;" edge="1" parent="1" source="m833cYq_X4YltrBixwbO-50" target="m833cYq_X4YltrBixwbO-59">
          <mxGeometry width="50" height="50" relative="1" as="geometry">
            <mxPoint x="710" y="640" as="sourcePoint" />
            <mxPoint x="760" y="590" as="targetPoint" />
          </mxGeometry>
        </mxCell>
        <mxCell id="m833cYq_X4YltrBixwbO-97" value="" style="endArrow=classic;html=1;rounded=0;exitX=0.5;exitY=1;exitDx=0;exitDy=0;entryX=0.5;entryY=0;entryDx=0;entryDy=0;" edge="1" parent="1" source="m833cYq_X4YltrBixwbO-59" target="m833cYq_X4YltrBixwbO-61">
          <mxGeometry width="50" height="50" relative="1" as="geometry">
            <mxPoint x="710" y="640" as="sourcePoint" />
            <mxPoint x="760" y="590" as="targetPoint" />
          </mxGeometry>
        </mxCell>
        <mxCell id="m833cYq_X4YltrBixwbO-98" value="" style="endArrow=classic;html=1;rounded=0;" edge="1" parent="1">
          <mxGeometry width="50" height="50" relative="1" as="geometry">
            <mxPoint x="845" y="600" as="sourcePoint" />
            <mxPoint x="845" y="640" as="targetPoint" />
          </mxGeometry>
        </mxCell>
        <mxCell id="m833cYq_X4YltrBixwbO-100" value="" style="edgeStyle=elbowEdgeStyle;elbow=vertical;endArrow=classic;html=1;curved=0;rounded=0;endSize=8;startSize=8;exitX=0.5;exitY=1;exitDx=0;exitDy=0;entryX=1;entryY=0.25;entryDx=0;entryDy=0;" edge="1" parent="1" source="m833cYq_X4YltrBixwbO-65" target="m833cYq_X4YltrBixwbO-73">
          <mxGeometry width="50" height="50" relative="1" as="geometry">
            <mxPoint x="710" y="640" as="sourcePoint" />
            <mxPoint x="790" y="960" as="targetPoint" />
            <Array as="points">
              <mxPoint x="810" y="980" />
            </Array>
          </mxGeometry>
        </mxCell>
        <mxCell id="m833cYq_X4YltrBixwbO-101" value="" style="endArrow=classic;html=1;rounded=0;exitX=0.5;exitY=1;exitDx=0;exitDy=0;entryX=0.523;entryY=-0.034;entryDx=0;entryDy=0;entryPerimeter=0;" edge="1" parent="1" source="m833cYq_X4YltrBixwbO-62" target="m833cYq_X4YltrBixwbO-64">
          <mxGeometry width="50" height="50" relative="1" as="geometry">
            <mxPoint x="710" y="840" as="sourcePoint" />
            <mxPoint x="845" y="710" as="targetPoint" />
          </mxGeometry>
        </mxCell>
        <mxCell id="m833cYq_X4YltrBixwbO-102" value="" style="endArrow=classic;html=1;rounded=0;exitX=0.5;exitY=1;exitDx=0;exitDy=0;entryX=0.514;entryY=-0.026;entryDx=0;entryDy=0;entryPerimeter=0;" edge="1" parent="1" source="m833cYq_X4YltrBixwbO-64" target="m833cYq_X4YltrBixwbO-65">
          <mxGeometry width="50" height="50" relative="1" as="geometry">
            <mxPoint x="829.3399999999998" y="770.4" as="sourcePoint" />
            <mxPoint x="865.66" y="770" as="targetPoint" />
          </mxGeometry>
        </mxCell>
        <mxCell id="m833cYq_X4YltrBixwbO-104" value="" style="edgeStyle=elbowEdgeStyle;elbow=vertical;endArrow=classic;html=1;curved=0;rounded=0;endSize=8;startSize=8;exitX=0.826;exitY=1.05;exitDx=0;exitDy=0;exitPerimeter=0;entryX=0.341;entryY=1.071;entryDx=0;entryDy=0;entryPerimeter=0;" edge="1" parent="1" source="m833cYq_X4YltrBixwbO-58" target="m833cYq_X4YltrBixwbO-65">
          <mxGeometry width="50" height="50" relative="1" as="geometry">
            <mxPoint x="810" y="690" as="sourcePoint" />
            <mxPoint x="860" y="640" as="targetPoint" />
            <Array as="points">
              <mxPoint x="600" y="930" />
            </Array>
          </mxGeometry>
        </mxCell>
        <mxCell id="m833cYq_X4YltrBixwbO-105" value="Neuspjeh" style="text;html=1;align=center;verticalAlign=middle;resizable=0;points=[];autosize=1;strokeColor=none;fillColor=none;" vertex="1" parent="1">
          <mxGeometry x="400" y="900" width="70" height="30" as="geometry" />
        </mxCell>
      </root>
    </mxGraphModel>
  </diagram>
</mxfile>
